<?xml version="1.0" encoding="utf-8"?>
<!-- Generator: Adobe Illustrator 26.0.1, SVG Export Plug-In . SVG Version: 6.00 Build 0)  -->
<svg version="1.1" id="Layer_1" xmlns="http://www.w3.org/2000/svg" xmlns:xlink="http://www.w3.org/1999/xlink" x="0px" y="0px"
	 viewBox="0 0 27 27" style="enable-background:new 0 0 27 27;" xml:space="preserve">
<style type="text/css">
	.st0{fill-rule:evenodd;clip-rule:evenodd;fill:#F3F3F3;}
	.st1{fill-rule:evenodd;clip-rule:evenodd;fill:#00A82D;}
	.st2{fill-rule:evenodd;clip-rule:evenodd;fill:#007AB9;}
	.st3{fill-rule:evenodd;clip-rule:evenodd;fill:#FFFFFF;}
	.st4{fill:#4CAF50;}
	.st5{fill:#1E88E5;}
	.st6{fill:#E53935;}
	.st7{fill:#C62828;}
	.st8{fill:#FBC02D;}
</style>
<g>
	<circle class="st0" cx="13.5" cy="13.5" r="12.4"/>
	<circle class="st3" cx="13.5" cy="13.5" r="9.8"/>
	<g>
		<path class="st4" d="M20,11.1l-3.1,2.3v5.1h2.2c0.5,0,0.9-0.4,0.9-0.9V11.1z"/>
		<path class="st5" d="M7,11.1l3.1,2.3v5.1H7.9c-0.5,0-0.9-0.4-0.9-0.9V11.1z"/>
		<polygon class="st6" points="16.9,9.5 13.5,12.1 10.1,9.5 10.1,13.4 13.5,16 16.9,13.4 		"/>
		<path class="st7" d="M7,9.9v1.2l3.1,2.3V9.5l-1-0.7C8.9,8.6,8.6,8.5,8.3,8.5l0,0C7.6,8.5,7,9.1,7,9.9z"/>
		<path class="st8" d="M20,9.9v1.2l-3.1,2.3V9.5l1-0.7c0.2-0.2,0.5-0.3,0.8-0.3l0,0C19.4,8.5,20,9.1,20,9.9z"/>
	</g>
</g>
</svg>
