<?xml version="1.0" encoding="utf-8"?>
<!-- Generator: Adobe Illustrator 24.2.1, SVG Export Plug-In . SVG Version: 6.00 Build 0)  -->
<svg version="1.1" id="Layer_1" xmlns="http://www.w3.org/2000/svg" xmlns:xlink="http://www.w3.org/1999/xlink" x="0px" y="0px"
	 viewBox="0 0 16 16" style="enable-background:new 0 0 16 16;" xml:space="preserve">
<style type="text/css">
	.st0{fill:#E22727;}
</style>
<g id="Layer_2_2_">
	<path class="st0" d="M8,15.6c-4.2,0-7.6-3.4-7.6-7.6S3.8,0.4,8,0.4s7.6,3.4,7.6,7.6S12.2,15.6,8,15.6z M8,1.5
		C4.4,1.5,1.5,4.4,1.5,8s2.9,6.5,6.5,6.5s6.5-2.9,6.5-6.5S11.6,1.5,8,1.5z"/>
	<path class="st0" d="M11.2,11.8c-0.2,0-0.3-0.1-0.4-0.2L7.6,8.4C7.5,8.3,7.4,8.2,7.4,8V3.3C7.4,3,7.7,2.7,8,2.7
		c0.3,0,0.6,0.3,0.6,0.6v4.5l3.1,3.1c0.2,0.2,0.2,0.6,0,0.8c0,0,0,0,0,0C11.5,11.8,11.4,11.8,11.2,11.8z"/>
</g>
</svg>
