<?xml version="1.0" encoding="utf-8"?>
<!-- Generator: Adobe Illustrator 26.0.1, SVG Export Plug-In . SVG Version: 6.00 Build 0)  -->
<svg version="1.1" id="Layer_1" xmlns="http://www.w3.org/2000/svg" xmlns:xlink="http://www.w3.org/1999/xlink" x="0px" y="0px"
	 viewBox="0 0 27 27" style="enable-background:new 0 0 27 27;" xml:space="preserve">
<style type="text/css">
	.st0{fill-rule:evenodd;clip-rule:evenodd;fill:#F3F3F3;}
	.st1{fill-rule:evenodd;clip-rule:evenodd;fill:#00A82D;}
	.st2{fill-rule:evenodd;clip-rule:evenodd;fill:#1976D2;}
	.st3{fill-rule:evenodd;clip-rule:evenodd;fill:#007AB9;}
	.st4{fill-rule:evenodd;clip-rule:evenodd;fill:#FFFFFF;}
	.st5{fill:#4CAF50;}
	.st6{fill:#1E88E5;}
	.st7{fill:#E53935;}
	.st8{fill:#C62828;}
	.st9{fill:#FBC02D;}
</style>
<g>
	<circle class="st0" cx="13.4" cy="13.6" r="12.4"/>
	<path class="st2" d="M13.4,23.4c-5.4,0-9.8-4.4-9.8-9.8c0-5.4,4.4-9.8,9.8-9.8s9.8,4.4,9.8,9.8C23.2,19,18.8,23.4,13.4,23.4z"/>
</g>
<path class="st0" d="M15.8,13.6h-1.6v5.7h-2.4v-5.7h-1.1v-2h1.1v-1.3c0-0.9,0.4-2.4,2.4-2.4l1.7,0v1.9h-1.3c-0.2,0-0.5,0.1-0.5,0.5
	v1.2H16L15.8,13.6L15.8,13.6z"/>
</svg>
