<?xml version="1.0" encoding="utf-8"?>
<!-- Generator: Adobe Illustrator 24.2.1, SVG Export Plug-In . SVG Version: 6.00 Build 0)  -->
<svg version="1.1" id="Layer_1" xmlns="http://www.w3.org/2000/svg" xmlns:xlink="http://www.w3.org/1999/xlink" x="0px" y="0px"
	 viewBox="0 0 40 40" style="enable-background:new 0 0 40 40;" xml:space="preserve">
<style type="text/css">
	.st0{opacity:0.18;fill:#FFAE0B;}
	.st1{fill:#F2A120;}
	.st2{fill:#F0F1F2;}
	.st3{opacity:0.2;fill:#FFFFFF;}
</style>
<g>
	<path class="st0" d="M20,39L20,39C9.5,39,1,30.5,1,20v0C1,9.5,9.5,1,20,1h0c10.5,0,19,8.5,19,19v0C39,30.5,30.5,39,20,39z"/>
	<g>
		<path class="st1" d="M31.4,20c0,6.3-5.1,11.4-11.4,11.4c-6.3,0-11.4-5.1-11.4-11.4c0-6.3,5.1-11.4,11.4-11.4
			C26.3,8.6,31.4,13.7,31.4,20z"/>
		<path class="st2" d="M19.7,15.2c0.2-0.4,0.5-0.4,0.7,0l1.1,2.2c0.2,0.4,0.7,0.7,1.1,0.8l2.5,0.4c0.4,0.1,0.5,0.3,0.2,0.6l-1.8,1.7
			c-0.3,0.3-0.5,0.9-0.4,1.3l0.4,2.4c0.1,0.4-0.2,0.6-0.5,0.4l-2.2-1.2c-0.4-0.2-1-0.2-1.3,0L17.1,25c-0.4,0.2-0.6,0-0.5-0.4
			l0.4-2.4c0.1-0.4-0.1-1-0.4-1.3l-1.8-1.7c-0.3-0.3-0.2-0.6,0.2-0.6l2.5-0.4c0.4-0.1,0.9-0.4,1.1-0.8L19.7,15.2z"/>
		<path class="st3" d="M8.6,20c0,6.3,5.1,11.4,11.4,11.4V8.6C13.7,8.6,8.6,13.7,8.6,20z"/>
	</g>
</g>
</svg>
