<?xml version="1.0" encoding="utf-8"?>
<!-- Generator: Adobe Illustrator 26.0.2, SVG Export Plug-In . SVG Version: 6.00 Build 0)  -->
<svg version="1.1" id="Layer_1" xmlns="http://www.w3.org/2000/svg" xmlns:xlink="http://www.w3.org/1999/xlink" x="0px" y="0px"
	 viewBox="0 0 16 16" style="enable-background:new 0 0 16 16;" xml:space="preserve">
<style type="text/css">
	.st0{fill:#E82424;}
</style>
<g id="Layer_3">
	<g>
		<path class="st0" d="M8,0.4C3.8,0.4,0.4,3.8,0.4,8s3.4,7.6,7.6,7.6s7.6-3.4,7.6-7.6S12.2,0.4,8,0.4z M1.6,8c0-3.5,2.8-6.4,6.4-6.4
			c1.5,0,3,0.5,4.1,1.5l-9,9C2.2,11,1.6,9.5,1.6,8z M8,14.4c-1.5,0-2.9-0.5-4-1.4l9-9c0.9,1.1,1.4,2.5,1.4,4
			C14.4,11.5,11.5,14.4,8,14.4z"/>
	</g>
</g>
</svg>
