<?xml version="1.0" encoding="utf-8"?>
<!-- Generator: Adobe Illustrator 24.2.1, SVG Export Plug-In . SVG Version: 6.00 Build 0)  -->
<svg version="1.1" id="Layer_1" xmlns="http://www.w3.org/2000/svg" xmlns:xlink="http://www.w3.org/1999/xlink" x="0px" y="0px"
	 viewBox="0 0 16 16" style="enable-background:new 0 0 16 16;" xml:space="preserve">
<style type="text/css">
	.st0{fill:#0080FF;}
</style>
<g>
	<path class="st0" d="M7.1,10.1h1.8c0.4,0,0.8-0.3,0.8-0.8V8.4c0-0.4-0.3-0.8-0.8-0.8H7.1C6.7,7.6,6.3,8,6.3,8.4v0.9
		C6.3,9.8,6.7,10.1,7.1,10.1z M7.1,9.3V8.5h1.7v0.8H7.1z"/>
	<path class="st0" d="M15.8,4.5c0-0.4-0.4-0.7-0.8-0.7h-4.2V2.9c0-0.6-0.5-1.1-1.1-1.1H6.3c-0.6,0-1.1,0.5-1.1,1.1v0.9H1
		c-0.4,0-0.8,0.3-0.8,0.7c0,0,0,0.1,0,0.1v8.8c0,0.4,0.4,0.8,0.8,0.8h14c0.4,0,0.8-0.4,0.8-0.8L15.8,4.5C15.8,4.5,15.8,4.5,15.8,4.5
		z M9.3,3.4v0.4H6.7V3.4H9.3z M6.1,8.5c0.1-0.2,0-0.5-0.2-0.6L1.8,6C1.3,5.8,1,5.4,1,4.9l0-0.3l13.9,0v0.3c0,0.5-0.3,0.9-0.7,1.1
		l-4.1,2C10,8,9.9,8.1,9.9,8.2c0,0.1,0,0.2,0,0.3c0,0.1,0.1,0.2,0.2,0.2c0.1,0,0.2,0,0.3,0l4.1-2c0.1-0.1,0.2-0.1,0.4-0.2l0,6.8
		L1,13.4V6.5c0.1,0.1,0.2,0.2,0.4,0.2l4.1,2C5.7,8.8,6,8.7,6.1,8.5z"/>
</g>
</svg>
