<?xml version="1.0" encoding="utf-8"?>
<!-- Generator: Adobe Illustrator 26.0.1, SVG Export Plug-In . SVG Version: 6.00 Build 0)  -->
<svg version="1.1" id="Layer_1" xmlns="http://www.w3.org/2000/svg" xmlns:xlink="http://www.w3.org/1999/xlink" x="0px" y="0px"
	 viewBox="0 0 27 27" style="enable-background:new 0 0 27 27;" xml:space="preserve">
<style type="text/css">
	.st0{fill-rule:evenodd;clip-rule:evenodd;fill:#F3F3F3;}
	.st1{fill-rule:evenodd;clip-rule:evenodd;fill:#00A82D;}
	.st2{fill-rule:evenodd;clip-rule:evenodd;fill:#007AB9;}
	.st3{fill-rule:evenodd;clip-rule:evenodd;fill:#FFFFFF;}
	.st4{fill:#4CAF50;}
	.st5{fill:#1E88E5;}
	.st6{fill:#E53935;}
	.st7{fill:#C62828;}
	.st8{fill:#FBC02D;}
</style>
<g>
	<circle class="st0" cx="13.5" cy="13.5" r="12.4"/>
	<path class="st2" d="M19,18.1v-3.8c0-2.1-1.1-3-2.6-3c-1.2,0-1.7,0.6-2,1.1v-0.9h-2.2c0,0.6,0,6.7,0,6.7h2.2v-3.7
		c0-0.2,0-0.4,0.1-0.5c0.2-0.4,0.5-0.8,1.1-0.8c0.8,0,1.1,0.6,1.1,1.5v3.6L19,18.1L19,18.1z M9.9,10.5c0.8,0,1.3-0.5,1.3-1.2
		c0-0.7-0.5-1.2-1.2-1.2c-0.8,0-1.3,0.5-1.3,1.2C8.6,10,9.1,10.5,9.9,10.5L9.9,10.5z M13.5,23.3c-5.4,0-9.8-4.4-9.8-9.8
		c0-5.4,4.4-9.8,9.8-9.8s9.8,4.4,9.8,9.8C23.3,18.9,18.9,23.3,13.5,23.3z M11,18.1v-6.7H8.8v6.7H11z"/>
</g>
</svg>
