<?xml version="1.0" encoding="utf-8"?>
<!-- Generator: Adobe Illustrator 24.2.1, SVG Export Plug-In . SVG Version: 6.00 Build 0)  -->
<svg version="1.1" id="Layer_1" xmlns="http://www.w3.org/2000/svg" xmlns:xlink="http://www.w3.org/1999/xlink" x="0px" y="0px"
	 viewBox="0 0 16 16" style="enable-background:new 0 0 16 16;" xml:space="preserve">
<style type="text/css">
	.st0{fill:#0080FF;}
</style>
<g>
	<g>
		<g>
			<path class="st0" d="M12.6,2.2C11.4,0.9,9.8,0.2,8,0.2S4.6,0.9,3.4,2.2C2.1,3.4,1.4,5,1.4,6.8c0,3.5,3.4,6.5,5.2,8.1
				c0.3,0.2,0.5,0.4,0.6,0.6c0.2,0.2,0.5,0.3,0.8,0.3c0.3,0,0.6-0.1,0.8-0.3c0.2-0.2,0.4-0.4,0.6-0.6c1.8-1.6,5.2-4.5,5.2-8.1
				C14.6,5,13.9,3.4,12.6,2.2z M8.8,14.2c-0.3,0.2-0.5,0.4-0.7,0.6c-0.1,0.1-0.2,0.1-0.3,0c-0.2-0.2-0.4-0.4-0.7-0.6
				c-1.7-1.5-4.9-4.3-4.9-7.4c0-3.1,2.5-5.7,5.7-5.7c3.1,0,5.7,2.5,5.7,5.7C13.7,9.9,10.5,12.7,8.8,14.2z"/>
		</g>
	</g>
	<g>
		<g>
			<path class="st0" d="M8,3.7C6.4,3.7,5.1,5,5.1,6.6S6.4,9.5,8,9.5s2.9-1.3,2.9-2.9S9.6,3.7,8,3.7z M8,8.5c-1.1,0-2-0.9-2-2
				s0.9-2,2-2s2,0.9,2,2S9.1,8.5,8,8.5z"/>
		</g>
	</g>
</g>
</svg>
