<?xml version="1.0" encoding="utf-8"?>
<!-- Generator: Adobe Illustrator 24.2.1, SVG Export Plug-In . SVG Version: 6.00 Build 0)  -->
<svg version="1.1" id="Layer_1" xmlns="http://www.w3.org/2000/svg" xmlns:xlink="http://www.w3.org/1999/xlink" x="0px" y="0px"
	 viewBox="0 0 20 20" style="enable-background:new 0 0 20 20;" xml:space="preserve">
<style type="text/css">
	.st0{fill:#181E3F;}
</style>
<g>
	<g>
		<g>
			<g>
				<path class="st0" d="M15.6,3c-1.5-1.5-3.5-2.3-5.6-2.3S5.9,1.5,4.4,3C2.9,4.5,2.1,6.4,2.1,8.6c0,4.3,4,7.8,6.2,9.7
					c0.3,0.3,0.6,0.5,0.8,0.7c0.3,0.2,0.6,0.4,0.9,0.4c0.3,0,0.7-0.1,0.9-0.4c0.2-0.2,0.5-0.4,0.8-0.7c2.2-1.9,6.2-5.5,6.2-9.7
					C17.9,6.4,17.1,4.5,15.6,3z M11,17.5c-0.3,0.3-0.6,0.5-0.8,0.7c-0.1,0.1-0.3,0.1-0.4,0C9.6,18,9.3,17.8,9,17.5
					c-2-1.8-5.8-5.1-5.8-8.9c0-3.8,3.1-6.8,6.8-6.8c3.8,0,6.8,3.1,6.8,6.8C16.8,12.3,13,15.7,11,17.5z"/>
			</g>
		</g>
		<g>
			<g>
				<path class="st0" d="M10,4.8c-1.9,0-3.5,1.6-3.5,3.5s1.6,3.5,3.5,3.5s3.5-1.6,3.5-3.5S11.9,4.8,10,4.8z M10,10.7
					c-1.3,0-2.4-1.1-2.4-2.4S8.7,5.9,10,5.9c1.3,0,2.4,1.1,2.4,2.4S11.3,10.7,10,10.7z"/>
			</g>
		</g>
	</g>
</g>
</svg>
