<?xml version="1.0" encoding="utf-8"?>
<!-- Generator: Adobe Illustrator 24.2.1, SVG Export Plug-In . SVG Version: 6.00 Build 0)  -->
<svg version="1.1" id="Layer_1" xmlns="http://www.w3.org/2000/svg" xmlns:xlink="http://www.w3.org/1999/xlink" x="0px" y="0px"
	 viewBox="0 0 20 20" style="enable-background:new 0 0 20 20;" xml:space="preserve">
<style type="text/css">
	.st0{fill:#181E3F;}
</style>
<g>
	<g>
		<g>
			<g>
				<path class="st0" d="M9,1.6C4.9,1.6,1.6,4.9,1.6,9s3.3,7.4,7.4,7.4s7.4-3.3,7.4-7.4S13.1,1.6,9,1.6z M9,15.2
					c-3.4,0-6.2-2.8-6.2-6.2c0-3.4,2.8-6.2,6.2-6.2s6.2,2.8,6.2,6.2C15.2,12.4,12.4,15.2,9,15.2z"/>
			</g>
		</g>
		<g>
			<g>
				<path class="st0" d="M18.3,17.4l-4-4c-0.2-0.2-0.6-0.2-0.9,0c-0.2,0.2-0.2,0.6,0,0.9l4,4c0.1,0.1,0.3,0.2,0.4,0.2
					c0.2,0,0.3-0.1,0.4-0.2C18.5,18,18.5,17.6,18.3,17.4z"/>
			</g>
		</g>
	</g>
</g>
</svg>
