<?xml version="1.0" encoding="utf-8"?>
<!-- Generator: Adobe Illustrator 24.2.1, SVG Export Plug-In . SVG Version: 6.00 Build 0)  -->
<svg version="1.1" id="Layer_1" xmlns="http://www.w3.org/2000/svg" xmlns:xlink="http://www.w3.org/1999/xlink" x="0px" y="0px"
	 viewBox="0 0 28 28" style="enable-background:new 0 0 28 28;" xml:space="preserve">
<style type="text/css">
	.st0{fill:#7A7A7A;}
</style>
<g>
	<g>
		<g>
			<path class="st0" d="M21.4,17.8c-1.5,0-2.8,0.7-3.6,1.8l-7-3.6c0.1-0.4,0.2-0.8,0.2-1.3c0-0.6-0.1-1.2-0.3-1.7L18,8.7
				c0.8,1,2,1.6,3.4,1.6c2.5,0,4.4-2,4.4-4.4s-2-4.4-4.4-4.4S17,3.3,17,5.8c0,0.6,0.1,1.1,0.3,1.6l-7.3,4.4c-0.8-0.9-2-1.5-3.3-1.5
				c-2.5,0-4.4,2-4.4,4.4s2,4.4,4.4,4.4c1.5,0,2.8-0.7,3.6-1.9l7,3.6C17,21.3,17,21.7,17,22.2c0,2.5,2,4.4,4.4,4.4s4.4-2,4.4-4.4
				S23.9,17.8,21.4,17.8z M21.4,2.8c1.6,0,3,1.3,3,3s-1.3,3-3,3s-3-1.3-3-3S19.8,2.8,21.4,2.8z M6.6,17.7c-1.6,0-3-1.3-3-3
				s1.3-3,3-3s3,1.3,3,3S8.2,17.7,6.6,17.7z M21.4,25.2c-1.6,0-3-1.3-3-3c0-1.6,1.3-3,3-3s3,1.3,3,3C24.4,23.8,23,25.2,21.4,25.2z"
				/>
		</g>
	</g>
</g>
</svg>
