<?xml version="1.0" encoding="utf-8"?>
<!-- Generator: Adobe Illustrator 24.2.1, SVG Export Plug-In . SVG Version: 6.00 Build 0)  -->
<svg version="1.1" id="Layer_1" xmlns="http://www.w3.org/2000/svg" xmlns:xlink="http://www.w3.org/1999/xlink" x="0px" y="0px"
	 viewBox="0 0 16 16" style="enable-background:new 0 0 16 16;" xml:space="preserve">
<style type="text/css">
	.st0{fill:#0080FF;}
</style>
<g>
	<g>
		<path class="st0" d="M8,0.4C3.8,0.4,0.4,3.8,0.4,8c0,4.2,3.4,7.6,7.6,7.6c4.2,0,7.6-3.4,7.6-7.6C15.6,3.8,12.2,0.4,8,0.4z M8,14.5
			c-3.6,0-6.5-2.9-6.5-6.5c0-3.6,2.9-6.5,6.5-6.5c3.6,0,6.5,2.9,6.5,6.5C14.5,11.6,11.6,14.5,8,14.5z"/>
		<path class="st0" d="M11.9,7.9H8.3V4c0-0.3-0.2-0.5-0.5-0.5C7.5,3.4,7.2,3.6,7.2,4v4.5C7.2,8.7,7.5,9,7.8,9h4.1
			c0.3,0,0.5-0.2,0.5-0.5C12.5,8.1,12.2,7.9,11.9,7.9z"/>
	</g>
</g>
</svg>
