<?xml version="1.0" encoding="utf-8"?>
<!-- Generator: Adobe Illustrator 26.0.1, SVG Export Plug-In . SVG Version: 6.00 Build 0)  -->
<svg version="1.1" id="Layer_1" xmlns="http://www.w3.org/2000/svg" xmlns:xlink="http://www.w3.org/1999/xlink" x="0px" y="0px"
	 viewBox="0 0 27 27" style="enable-background:new 0 0 27 27;" xml:space="preserve">
<style type="text/css">
	.st0{fill-rule:evenodd;clip-rule:evenodd;fill:#F3F3F3;}
	.st1{fill-rule:evenodd;clip-rule:evenodd;fill:#00A82D;}
	.st2{fill-rule:evenodd;clip-rule:evenodd;fill:#4AA0EC;}
	.st3{fill-rule:evenodd;clip-rule:evenodd;fill:#007AB9;}
	.st4{fill-rule:evenodd;clip-rule:evenodd;fill:#FFFFFF;}
	.st5{fill:#4CAF50;}
	.st6{fill:#1E88E5;}
	.st7{fill:#E53935;}
	.st8{fill:#C62828;}
	.st9{fill:#FBC02D;}
	.st10{fill-rule:evenodd;clip-rule:evenodd;fill:#1976D2;}
	.st11{fill:#F3F3F3;}
</style>
<g>
	<circle class="st0" cx="13.4" cy="13.6" r="12.4"/>
	<path class="st2" d="M13.4,23.4c-5.4,0-9.8-4.4-9.8-9.8c0-5.4,4.4-9.8,9.8-9.8s9.8,4.4,9.8,9.8C23.2,19,18.8,23.4,13.4,23.4z"/>
</g>
<g id="Icons">
	<g id="Icons_1_">
		<g>
			<path class="st11" d="M13.3,12.1c-0.6-1.7,2.2-3.3,3.3-1.8c0,0,0.4,0,1.3-0.5c0,0-0.2,0.6-0.8,1c0,0,0.5,0,1-0.3
				c0,0-0.4,0.6-0.9,1c0,0,0,0.9-0.1,1.4c-0.1,0.5-0.6,2.1-1.9,3.1c-1.3,1.1-2.9,1.3-3.8,1.2c-0.9-0.1-2-0.4-2.7-0.8
				c0,0,1.6,0.2,2.8-0.8c0,0-1.2,0.1-1.8-1.3c0,0,0.4,0.1,0.9,0c0,0-1.5-0.3-1.6-1.9c0,0,0.5,0.2,0.9,0.2c0,0-1.5-1.1-0.6-2.6
				C9.3,10.1,10.8,12,13.3,12.1z"/>
		</g>
	</g>
</g>
</svg>
