<?xml version="1.0" encoding="utf-8"?>
<!-- Generator: Adobe Illustrator 26.0.1, SVG Export Plug-In . SVG Version: 6.00 Build 0)  -->
<svg version="1.1" id="Layer_1" xmlns="http://www.w3.org/2000/svg" xmlns:xlink="http://www.w3.org/1999/xlink" x="0px" y="0px"
	 viewBox="0 0 27 27" style="enable-background:new 0 0 27 27;" xml:space="preserve">
<style type="text/css">
	.st0{fill-rule:evenodd;clip-rule:evenodd;fill:#F3F3F3;}
	.st1{fill-rule:evenodd;clip-rule:evenodd;fill:#00A82D;}
	.st2{fill-rule:evenodd;clip-rule:evenodd;fill:#007AB9;}
	.st3{fill-rule:evenodd;clip-rule:evenodd;fill:#FFFFFF;}
	.st4{fill:#4CAF50;}
	.st5{fill:#1E88E5;}
	.st6{fill:#E53935;}
	.st7{fill:#C62828;}
	.st8{fill:#FBC02D;}
</style>
<g>
	<g>
		<path class="st0" d="M3.4,19.9c-1.2-1.9-1.9-4.1-1.9-6.5c0-6.7,5.4-12.1,12.1-12.1s12.1,5.4,12.1,12.1s-5.4,12.1-12.1,12.1
			c-2.3,0-4.4-0.6-6.2-1.7l-5.9,2L3.4,19.9L3.4,19.9z"/>
		<path class="st1" d="M5.6,19c-1.1-1.6-1.8-3.5-1.8-5.6c0-5.3,4.3-9.7,9.7-9.7s9.7,4.3,9.7,9.7S18.8,23,13.5,23
			c-2,0-3.9-0.6-5.4-1.7l-3.6,1.2L5.6,19z"/>
	</g>
	<path class="st0" d="M10.6,15.9C9.2,14.1,8.2,12,7.9,9.7C7.8,9,8.1,8.4,8.5,7.9C9,7.5,9.6,7.2,10.2,7.3l0.1,0c0,0,0.7,0.2,1.1,0.3
		c0.2,0,0.3,0.2,0.3,0.3c0.2,0.5,0.6,1.7,0.8,2.3c0.1,0.2,0,0.4-0.1,0.5c-0.3,0.2-0.8,0.7-1.1,0.9c-0.2,0.1-0.2,0.4-0.1,0.6
		c0.4,0.8,0.8,1.5,1.3,2.1c0.6,0.6,1.2,1.2,1.9,1.7c0.2,0.1,0.4,0.1,0.6,0c0.3-0.3,0.8-0.7,1.1-0.9c0.2-0.1,0.4-0.1,0.5-0.1
		c0.5,0.3,1.7,0.9,2.2,1.2c0.1,0.1,0.2,0.2,0.2,0.4c0,0.4,0.1,1.1,0.1,1.1l0,0.1c-0.1,0.6-0.4,1.2-0.9,1.6c-0.5,0.4-1.2,0.5-1.8,0.3
		C14.1,19,12.1,17.6,10.6,15.9L10.6,15.9L10.6,15.9z"/>
</g>
</svg>
